{"asset":{"version":"2.0","generator":"VIIVII sara metallic logo"},"scene":0,"scenes":[{"nodes":[0]}],"nodes":[{"name":"VIIVII sara","mesh":0}],"meshes":[{"name":"VIIVII_sara","primitives":[{"attributes":{"POSITION":0,"NORMAL":1},"indices":2,"material":0,"mode":4}]}],"materials":[{"name":"Polished chrome","pbrMetallicRoughness":{"baseColorFactor":[0.86,0.88,0.92,1],"metallicFactor":1,"roughnessFactor":0.1},"doubleSided":true}],"buffers":[{"byteLength":62856,"uri":"data:application/octet-stream;base64,"}],"bufferViews":[{"buffer":0,"byteOffset":0,"byteLength":27936,"target":34962},{"buffer":0,"byteOffset":27936,"byteLength":27936,"target":34962},{"buffer":0,"byteOffset":55872,"byteLength":6984,"target":34963}],"accessors":[{"bufferView":0,"componentType":5126,"count":2328,"type":"VEC3","min":[-2.5650000000000004,-1.418494926198338,-0.17],"max":[2.4826344375133065,1.2175,0.26]},{"bufferView":1,"componentType":5126,"count":2328,"type":"VEC3"},{"bufferView":2,"componentType":5123,"count":3492,"type":"SCALAR"}]}